Coordinates
version=1
nRows=12
nColumns=24
inDegrees=yes

Units are S.I. units (second, meters, Newtons, ...)
Angles are in degrees.

endheader
time	pelvis_tilt	pelvis_list	pelvis_rotation	pelvis_tx	pelvis_ty	pelvis_tz	hip_flexion_r	hip_adduction_r	hip_rotation_r	knee_angle_r	ankle_angle_r	subtalar_angle_r	mtp_angle_r	hip_flexion_l	hip_adduction_l	hip_rotation_l	knee_angle_l	ankle_angle_l	subtalar_angle_l	mtp_angle_l	lumbar_extension	lumbar_bending	lumbar_rotation
      1.39583333	     -0.33434893	     -0.35834001	     -5.76763190	      0.20689183	      1.02107675	      0.28762092	     15.94920434	     -2.23302578	     -2.13169964	    -64.69712163	      6.04042865	     -5.40075593	      4.49469510	      8.91266919	     -0.65153038	    -14.55023965	     -9.86055533	     -0.22417924	     -7.68866881	      2.64548666	    -10.70984612	     -2.81612957	      7.90174044
      1.40000000	     -0.17452372	     -0.52918158	     -5.26137892	      0.21182156	      1.02207971	      0.28620269	     16.19675199	     -2.15736122	     -2.75633461	    -64.31247236	      6.01264958	     -6.03567136	      3.15393397	      8.35320819	     -0.63093695	    -14.00546158	     -9.60279115	     -0.16285692	     -7.77450071	      2.43049972	    -10.96248346	     -2.50725940	      7.19870568
      1.40416667	     -0.12464480	     -0.67588460	     -4.84308974	      0.21667656	      1.02281945	      0.28509489	     16.59458618	     -2.05577491	     -3.28793924	    -63.93672802	      6.04231006	     -6.63269641	     -1.02064578	      7.93760350	     -0.65098719	    -13.65361548	     -9.41915814	     -0.00978220	     -7.58452913	      1.74823015	    -11.08224083	     -2.25273275	      6.98772195
      1.40833333	     -0.10741121	     -0.75295170	     -4.63836972	      0.22148511	      1.02342547	      0.28452596	     17.08502806	     -1.93796868	     -3.57969317	    -63.56844840	      5.98488304	     -7.35322602	     -1.08789093	      7.52487717	     -0.65515682	    -13.59638176	     -9.20128400	      0.09799072	     -7.34005813	      1.74129172	    -11.14151536	     -2.12966593	      6.72213856
      1.41250000	      0.01241217	     -0.92309721	     -4.23501645	      0.22634593	      1.02425722	      0.28347012	     17.36773474	     -1.82202841	     -4.10836078	    -63.05281462	      6.00165211	     -7.94848348	     -1.24000782	      7.02260135	     -0.71139299	    -13.30347926	     -8.99690851	      0.20195042	     -7.12777094	      1.72597860	    -11.34156363	     -1.84113110	      6.29423639
      1.41666667	      0.13564272	     -1.05448579	     -3.84908139	      0.23119064	      1.02505320	      0.28242018	     17.64698280	     -1.75527268	     -4.62186582	    -62.49683331	      5.97178956	     -8.52483973	     -1.42714811	      6.50467796	     -0.72519817	    -12.99712657	     -8.75844957	      0.28466234	     -7.01204595	      1.70872200	    -11.53450310	     -1.60428203	      5.91701820
      1.42083333	      0.26813140	     -1.18237705	     -3.47268724	      0.23599874	      1.02582547	      0.28139897	     17.90836477	     -1.69317970	     -5.12527895	    -61.89713887	      5.96428110	     -9.04657998	     -1.64638581	      5.97684034	     -0.74325332	    -12.69780733	     -8.51588840	      0.36639395	     -6.88650332	      1.68970032	    -11.74603593	     -1.36819578	      5.53345952
      1.42500000	      0.33841065	     -1.27423325	     -3.16281665	      0.24079288	      1.02644942	      0.28055495	     18.24922696	     -1.63932847	     -5.55290299	    -61.27144416	      5.88223673	     -9.59066513	     -1.79552182	      5.51286166	     -0.74534710	    -12.47515272	     -8.27963604	      0.47835740	     -6.77005492	      1.68018849	    -11.87029477	     -1.20513634	      5.27880286
      1.42916667	      0.53417642	     -1.43064847	     -2.72770104	      0.24561482	      1.02729432	      0.27940848	     18.38188216	     -1.58543486	     -6.13152695	    -60.53469556	      5.95605435	     -9.96020925	     -2.07094645	      4.92229327	     -0.79547804	    -12.13488902	     -8.03433375	      0.54425990	     -6.63229671	      1.66247989	    -12.15385199	     -0.90589146	      4.78452073
      1.43333333	      0.68242567	     -1.54593625	     -2.35092668	      0.25041143	      1.02800513	      0.27841358	     18.57757466	     -1.55034368	     -6.64270087	    -59.77510318	      5.96581498	    -10.34262295	     -2.37008566	      4.37612441	     -0.81972469	    -11.84495007	     -7.78072728	      0.61744793	     -6.51485908	      1.64449914	    -12.37173883	     -0.67870090	      4.42034816
      1.43750000	      0.86223664	     -1.63887640	     -1.97692453	      0.25517805	      1.02872157	      0.27741906	     18.72904907	     -1.54726153	     -7.15226694	    -58.97257218	      5.96215321	    -10.66144025	     -2.75688348	      3.79579991	     -0.82354360	    -11.55587168	     -7.52081956	      0.69934758	     -6.39979531	      1.62373891	    -12.63001964	     -0.48413601	      4.03793356
      1.44166667	      0.96435698	     -1.75088337	     -1.62873759	      0.25997234	      1.02929060	      0.27654851	     18.94837333	     -1.49860179	     -7.63059926	    -58.12089739	      6.00653071	    -10.96448641	     -3.08308403	      3.30622130	     -0.87008992	    -11.31595881	     -7.28756697	      0.80028296	     -6.27155537	      1.60959520	    -12.78636511	     -0.26173599	      3.69898766
